<svg width="84" height="84" viewBox="0 0 84 84" fill="none" xmlns="http://www.w3.org/2000/svg">
<path fill-rule="evenodd" clip-rule="evenodd" d="M6.76391 43.1572C6.76391 39.23 6.81412 37.2203 7.7691 33.4084C8.06297 32.2364 8.33632 31.2238 8.74547 30.1654C9.62403 27.892 10.203 26.3908 11.444 24.2905C15.2709 17.8127 19.3751 14.289 25.6709 10.6254C27.4319 9.60067 31.3772 8.20386 33.4692 7.67793C39.741 6.101 47.6795 6.33446 53.6573 8.59645C54.673 8.98074 55.6293 9.40437 56.6489 9.82144C60.0007 11.192 64.2267 14.3074 66.696 16.7801C68.1903 18.2762 69.3514 19.5449 70.6164 21.2958C71.8657 23.0249 72.8237 24.7448 73.8014 26.6837C75.6253 30.3005 77.2003 36.0333 77.2003 40.2985V43.43C77.2003 49.7994 74.2594 57.6954 70.8474 62.2561C68.9261 64.8237 68.3318 65.6194 65.9463 67.832C65.514 68.2328 65.3839 68.4195 64.8839 68.8108C61.6858 71.3124 61.1928 71.7959 57.2113 73.7899C53.5879 75.6047 48.0384 77.1934 43.7495 77.1934H40.4859C31.7082 77.1934 23.0138 72.8377 16.9957 66.8124C14.9006 64.7148 12.9387 62.2976 11.4807 59.6728C10.9489 58.7162 10.5022 57.8794 10.0249 56.9098C8.43719 53.6825 6.76347 47.9601 6.76347 43.1572H6.76391ZM4.04438 41.9318C4.04438 45.1084 5.02119 47.1623 5.75478 49.7495C6.49274 52.3543 6.96433 54.8917 7.63592 57.2599C8.48697 60.2617 9.19043 61.2777 10.9388 63.3469C11.3764 63.8645 11.5554 64.0853 12.0331 64.5657L15.7045 67.9692C18.9489 71.2197 21.1925 74.812 26.2372 76.2115C28.7175 76.8996 31.2728 77.3678 33.7369 78.097C41.3055 80.3372 41.8374 80.7656 50.0217 78.1622C52.3797 77.412 55.1494 76.9298 57.5139 76.2696C60.2845 75.4967 61.6399 74.5445 63.5634 72.9326L68.6671 67.5591C68.9606 67.2877 69.0579 67.271 69.3474 67.0153L71.7281 64.7699C77.1964 59.2771 75.9816 56.8503 78.1693 49.9804C80.5679 42.4477 80.488 41.3901 78.1697 33.8828C77.7903 32.653 77.5169 31.5216 77.1995 30.2253C76.5694 27.6503 76.2331 25.4425 74.9328 23.1005C74.314 21.9861 73.7136 21.2844 72.8818 20.3891L64.7236 12.0839C64.2651 11.5593 63.8983 11.3835 63.4303 10.9284C59.5108 7.11702 54.794 7.30851 49.7824 5.66862C42.8338 3.39526 40.8444 3.40925 34.1801 5.66688C29.4454 7.27134 24.2238 7.18347 20.5301 10.9245C19.71 11.7547 18.9812 12.4856 18.1511 13.3076L15.8403 15.7589C12.2099 19.3932 9.15855 21.2289 7.6857 26.5184C7.01368 28.9321 6.55038 31.7074 5.76221 34.1224C5.03429 36.352 4.04395 39.1072 4.04395 41.9322L4.04438 41.9318Z" fill="#E9C055"/>
<path fill-rule="evenodd" clip-rule="evenodd" d="M2.41241 41.9319C2.41241 38.0138 5.57777 35.2521 6.1987 30.8834C6.90041 25.9462 5.86116 22.9987 9.87102 19.7207C11.815 18.1315 13.7521 17.3053 15.5686 15.4866C17.2458 13.8074 18.2518 11.7513 19.7378 9.8587C23.8057 4.67631 27.6881 7.84678 34.5821 4.98016C36.9457 3.99736 39.0146 2.31464 42.118 2.31464C45.7689 2.31464 48.7351 5.4956 53.0175 6.10547C54.4654 6.31182 56.085 6.34898 57.5085 6.5103C61.066 6.91382 61.9996 7.33921 64.1121 9.70131C66.5474 12.4241 66.3806 14.4784 71.0551 17.5899C75.0715 20.2633 76.6928 21.086 77.3792 26.0979C77.5613 27.4265 77.5984 29.1976 77.7552 30.6228C77.9036 31.9728 78.349 33.3504 78.8778 34.3996C80.211 37.0437 81.5528 39.5204 81.5528 42.3407C81.5528 44.6643 79.6988 47.701 78.8778 49.4646C76.0954 55.4413 79.4219 59.8176 74.0431 64.2283C72.6511 65.3698 71.0616 66.2228 69.7206 67.2523C69.4446 67.4639 69.3307 67.6016 69.0621 67.8185C68.7748 68.0502 68.6766 68.0874 68.3919 68.3724C66.2208 70.5461 64.5161 74.9057 61.6572 76.3331C57.6421 78.3385 54.055 76.7484 49.5063 78.871C46.6055 80.2249 45.0999 81.5491 41.5748 81.5491C39.284 81.5491 36.2073 79.6867 34.4594 78.871C33.3376 78.3472 32.0486 77.9253 30.6731 77.7609C29.2181 77.5869 27.5121 77.5563 26.1676 77.371C24.3891 77.1257 23.6468 77.0488 22.3097 76.3322C21.1705 75.7215 20.5081 74.9826 19.7247 74.0195C18.2104 72.158 17.2157 70.0101 15.5035 68.3073C13.2569 66.0724 9.18852 64.6349 7.57767 61.5392C6.88164 60.2014 6.82705 59.3131 6.5882 57.4926C6.40961 56.1308 6.37249 54.4384 6.1987 52.9817C5.73715 49.1131 2.41329 45.8416 2.41329 41.9323L2.41241 41.9319ZM41.4416 0.000183105H42.6533C44.5401 0.2026 46.1383 1.33272 48.3299 2.63029C48.8583 2.94331 49.1273 3.16934 49.6857 3.45132C50.1722 3.69702 50.5591 3.91605 51.0512 4.12633C55.2658 5.92535 60.7892 3.02069 64.2527 6.56539C65.9907 8.34429 67.188 11.659 68.4565 13.3842C70.3883 16.0116 72.3327 16.3763 75.0007 17.996C82.9929 22.8475 76.5666 27.7094 80.5214 34.3878C81.5703 36.1593 83.9999 39.4299 83.9999 41.9323C83.9999 44.4684 81.7794 47.4579 80.4891 49.5809C78.615 52.6643 79.2407 54.8595 79.2407 59.2226C79.2407 65.9478 72.7895 66.0195 69.415 69.398C66.0269 72.7902 65.9715 79.2356 59.2517 79.2356C57.2727 79.2356 55.3584 79.0187 53.6519 79.2111C48.3408 79.8087 46.2143 84.0005 41.9822 84.0005C39.4657 84.0005 36.4733 81.7813 34.4266 80.5375C31.2853 78.6283 29.5077 79.2356 25.1205 79.2356C20.2369 79.2356 18.8029 76.6911 16.9165 72.882C13.6874 66.3613 9.82211 67.6611 6.38734 63.9555C4.25338 61.6533 4.85946 58.5694 4.85946 54.5936C4.85946 51.3843 3.73681 50.0303 2.55433 48.0525C-0.428065 43.0655 -1.25859 41.5174 2.57529 35.8336C6.08691 30.6276 4.37564 28.8688 4.86907 23.4267C5.34284 18.1976 11.3884 17.5226 14.4835 14.673C17.5619 11.8383 17.7685 5.92579 23.0215 4.84201C24.7319 4.4892 27.578 4.7655 29.7439 4.7655C33.4463 4.7655 35.6021 2.38459 38.354 0.996965C39.5286 0.404579 40.5316 0.0950522 41.4412 0.00062029L41.4416 0.000183105Z" fill="#E9C055"/>
<path fill-rule="evenodd" clip-rule="evenodd" d="M74.7533 41.9318C74.7533 64.6414 52.026 81.2662 29.3153 72.1767C28.8791 72.0022 28.7083 71.8894 28.2874 71.708L25.2487 70.1215C21.8768 68.0986 19.5585 66.0106 16.9303 63.0657C16.46 62.5385 16.0469 61.9457 15.6212 61.3813C14.2169 59.5189 13.1894 57.6132 12.1554 55.4574C8.7001 48.2526 8.19357 38.3298 11.5222 29.9512C12.0995 28.4988 12.7235 27.1274 13.5042 25.8093C15.0889 23.1333 16.6146 20.9731 18.8311 18.7536C19.097 18.4873 19.3 18.2499 19.5852 18.0108C24.2347 14.1194 27.9713 11.5356 34.5845 10.0199C44.1115 7.83662 53.3714 9.90931 61.1557 15.3829C62.3369 16.2131 62.8081 16.7123 63.7185 17.4459C67.7052 20.6592 71.4373 26.7033 72.9678 31.3296C73.9861 34.4078 74.7529 37.8708 74.7529 41.9314L74.7533 41.9318ZM41.9824 76.6482C47.2642 76.6482 51.6335 75.4722 56.1826 73.5757C57.321 73.1009 58.0458 72.6672 59.0694 72.1089C61.6046 70.7261 63.2561 69.3358 65.3381 67.494C66.9537 66.0648 65.9197 67.0271 67.4428 65.3811L69.4501 63.0343C69.7619 62.6168 70.0688 62.2377 70.3763 61.7835C79.8129 47.8495 78.4658 29.5166 66.8323 17.8691C66.1075 17.1434 65.4809 16.4015 64.6909 15.7929C61.609 13.4164 61.4033 12.9289 57.076 10.7557C53.8534 9.13724 48.2921 7.35222 43.478 7.35222C39.2275 7.35222 37.2887 7.30369 33.0352 8.46922C30.8877 9.05767 28.6913 9.84504 26.7971 10.8007C24.8793 11.7687 23.0951 12.8122 21.4681 14.0425L19.1372 15.9293C15.9295 18.3881 11.7471 24.329 10.1236 28.4153C8.46299 32.594 8.12196 34.191 7.53902 38.6249C7.08271 42.0935 7.5626 46.952 8.36518 50.2676C9.33806 54.2862 11.3602 58.7096 13.7558 62.0248L19.9232 68.6473C20.6633 69.2952 21.5938 69.9886 22.4003 70.5232C25.5862 72.6357 24.9705 72.1365 27.8848 73.6093C31.5388 75.456 37.552 76.6491 41.982 76.6491L41.9824 76.6482Z" fill="#E9C055"/>
<path fill-rule="evenodd" clip-rule="evenodd" d="M42.3902 32.2661L42.6623 30.7687C43.378 30.9602 43.9784 31.9854 44.3395 32.6289C45.0071 33.8181 45.0443 34.4787 44.4299 35.3972C43.7963 35.2494 43.9801 35.1441 43.6251 34.9779L43.078 34.845C42.647 34.7182 42.6597 35.0133 42.6701 33.3472C42.6749 32.5765 42.6928 32.7186 42.3902 32.2661ZM41.8466 32.2661C41.5108 32.9673 41.9103 34.0157 41.5746 34.7165C41.1514 34.9198 41.0855 34.7676 40.7008 34.9307C40.2061 35.1401 40.5667 35.2306 39.9427 35.3972C38.3127 34.3042 40.8881 31.1373 41.2283 30.9318C42.0208 30.4526 41.492 31.7069 41.8466 32.2661ZM42.3902 32.2661L42.2544 32.1297L42.3902 32.2661ZM41.9824 32.1297L41.8466 32.2661L41.9824 32.1297ZM42.2544 32.1297H41.9824V31.8573H42.2544V32.1297ZM41.9824 31.449C42.1269 31.3043 42.4981 31.6649 42.1339 31.5198C42.1309 31.5185 41.7545 31.6772 41.9824 31.449ZM41.9824 31.0406C42.1269 30.8959 42.4981 31.2566 42.1339 31.1115C42.1309 31.1102 41.7545 31.2689 41.9824 31.0406ZM39.9427 26.6841C39.955 27.2231 40.0545 27.2332 40.2467 27.6052C40.7702 28.6204 40.6231 27.8846 40.6231 29.2705C40.6231 30.5597 38.1551 29.6045 37.3547 31.4437C36.811 32.6923 37.2909 35.0335 36.9202 36.5907C36.6761 37.6168 36.3158 38.0168 36.1914 38.5838C36.0076 39.4237 36.0591 40.4086 35.8849 41.1361C35.663 42.0625 34.4146 43.0335 34.4059 43.7404C34.3993 44.2585 34.3085 44.025 34.8369 43.9848C34.8526 43.9835 34.8967 43.9778 34.9107 43.9765L35.0478 43.9734C34.8718 44.3416 34.7757 44.6301 34.7757 45.1989C35.1779 45.0913 34.9963 45.1434 35.3198 44.9265C35.3198 45.4795 35.2744 45.365 35.4556 45.7432C35.8154 45.4796 35.8499 45.4026 35.8635 44.7901C35.9661 44.9523 35.9246 44.7875 35.9761 45.0856C36.0093 45.2771 35.9997 45.414 35.9997 45.6068C36.5578 45.4577 36.4075 45.5053 36.4075 44.7901C36.4285 44.8207 36.453 44.8373 36.463 44.8858C36.5154 45.1394 36.4988 45.1058 36.7071 45.1246C37.4826 45.1936 36.2748 42.8827 37.521 40.8677C38.9262 38.5961 38.376 37.6177 38.7371 36.5033C38.7472 36.4718 38.7638 36.4311 38.7734 36.4036L38.9908 39.7529C38.9908 40.9123 37.8276 41.1982 38.3882 45.2575C38.6446 47.1124 39.1271 49.7001 39.1271 51.3251C39.1271 52.6621 38.3664 52.1711 39.3402 55.6048C39.8039 57.2407 39.9427 56.901 39.9427 58.5409C39.9427 59.1774 39.5349 59.2981 39.5349 60.3106C42.733 61.0564 41.8125 60.2472 41.4977 58.8898C40.7811 55.8006 41.1667 56.3628 41.1667 53.912C41.1667 53.0319 40.9576 52.3582 41.0602 51.6329C41.3746 49.405 41.7475 48.0288 41.9828 45.1984C42.4086 45.5106 42.2365 45.7768 42.3784 47.2532C42.4584 48.0839 42.5544 48.6815 42.6549 49.4273C42.7566 50.1832 42.95 50.8635 43.0395 51.4943C43.1714 52.4225 42.9352 52.8662 42.9352 53.7751C42.9352 57.1777 43.367 54.8821 42.6487 58.798C42.416 60.0667 41.7134 60.5825 42.9352 60.5825C43.7146 60.5825 43.9076 60.3653 44.567 60.3102C44.567 59.0896 44.1591 59.5757 44.1591 58.1321C44.1591 56.1805 45.2469 55.9506 45.2469 52.6865C45.2469 51.7601 44.8255 51.7588 45.0312 50.4302C45.1988 49.3495 44.9875 49.7578 45.3246 48.1354C45.7346 46.1607 46.1551 43.3426 45.6303 41.4115C44.994 39.0695 45.1111 40.5931 45.1111 37.7112C45.1111 37.3859 45.1067 37.2557 45.1587 36.9418C45.1604 36.9304 45.2181 36.6589 45.2329 36.6078C45.2425 36.5737 45.2547 36.5361 45.2652 36.5041L45.3831 36.2139C45.4796 40.5617 47.1708 40.5656 47.1533 42.7463L47.287 45.1989C47.7363 45.031 47.3511 45.2898 47.6948 44.9265C47.7066 45.4616 47.6577 45.2457 47.831 45.6072C47.8734 45.5919 47.9869 45.5128 48.0101 45.5058C48.6821 45.2929 48.783 46.5319 48.783 44.7905C49.8375 46.005 49.186 44.2655 49.055 43.7015C49.4048 43.9358 49.5999 44.3831 49.6908 43.8366C49.7344 43.573 49.4519 43.103 49.3244 42.8879C48.9668 42.2842 48.421 41.8339 48.2415 41.1121C48.0524 40.3527 48.1301 39.5124 47.9354 38.6953C47.7446 37.8935 47.3704 37.4039 47.2057 36.5667C46.9106 35.0662 47.2184 32.4768 46.766 31.4249C45.9486 29.5219 42.5675 30.8251 43.6469 28.0761C44.0399 27.0749 44.2744 27.5821 43.9902 26.0371C43.5007 23.3715 40.4488 23.9259 40.2375 25.7516C40.1314 26.6662 40.3432 26.5215 39.9436 26.6828L39.9427 26.6841Z" fill="#E9C055"/>
<path fill-rule="evenodd" clip-rule="evenodd" d="M56.2603 21.9192C56.2603 28.2317 51.637 32.8554 51.637 37.031C51.637 37.6251 51.8614 38.0951 51.909 38.6647C52.3871 38.3141 52.0352 38.2568 52.6784 36.9846C54.8538 32.684 57.8921 28.95 57.8921 24.2337C57.8921 22.1461 56.945 20.1561 55.7167 19.3324C55.9018 20.1281 56.2603 20.6064 56.2603 21.9192Z" fill="#E9C055"/>
<path fill-rule="evenodd" clip-rule="evenodd" d="M31.3758 38.6647L31.7837 36.4866C31.7837 34.8188 30.0392 31.2125 29.3812 29.9066C28.1899 27.5427 26.27 22.3035 27.8402 19.3328C27.2092 19.5016 26.5835 20.598 26.2948 21.1891C23.1858 27.5436 31.0955 35.2905 31.3758 38.6651V38.6647Z" fill="#E9C055"/>
<path fill-rule="evenodd" clip-rule="evenodd" d="M23.625 29.5433C23.625 34.229 28.7204 38.2638 30.1976 41.478C30.3906 41.8977 30.3692 42.101 30.6958 42.3406C30.7417 41.7884 30.8321 42.0017 30.8321 41.1151C30.8321 38.9052 28.6641 36.0215 27.7043 34.5801C26.1982 32.319 24.8485 30.1479 24.8485 26.956C24.8485 26.4865 24.9494 26.4288 24.9848 26.003C24.2119 26.521 23.625 28.2221 23.625 29.5428V29.5433Z" fill="#E9C055"/>
<path fill-rule="evenodd" clip-rule="evenodd" d="M58.733 27.3613C58.9675 29.2521 56.9889 32.8099 55.9885 34.3082C54.2799 36.8674 52.1791 39.4101 52.8612 42.3405C52.8826 42.3161 52.9118 42.2426 52.9193 42.2627L53.3559 41.3385C53.5463 40.9402 53.6935 40.7461 53.921 40.4069C55.2047 38.492 56.5828 36.9505 57.892 34.9888C59.2618 32.9367 60.3115 30.5759 59.667 28.0385C59.4906 27.3442 59.0522 26.3553 58.5723 26.0034L58.7334 27.3613H58.733Z" fill="#E9C055"/>
<path fill-rule="evenodd" clip-rule="evenodd" d="M22.8093 35.2612C22.8093 38.6074 26.0114 41.2712 28.2829 43.5319C28.7584 44.0054 28.9588 44.2288 29.3584 44.7696C29.6741 45.1971 29.9566 45.9097 30.2885 46.1528C31.2648 44.4133 28.1143 40.7466 26.8554 39.515C25.1795 37.8752 23.6254 35.6591 23.6254 33.0827C23.2595 33.2152 23.1932 33.4303 23.0272 33.9812C22.8879 34.4433 22.8098 34.7235 22.8098 35.2612H22.8093Z" fill="#E9C055"/>
<path fill-rule="evenodd" clip-rule="evenodd" d="M53.1328 46.1524C53.4594 46.0339 53.2398 46.1637 53.442 45.9171C53.9847 45.2553 53.3372 45.4712 55.5462 43.2591C57.099 41.7049 59.6185 39.2177 60.3237 37.2871C60.7752 36.0508 60.9538 33.8325 59.9316 33.0823C59.9316 36.8919 56.4401 39.4258 54.3153 42.2986C54.0088 42.713 53.5861 43.3946 53.4193 43.8519C53.1354 44.6309 53.1328 45.1066 53.1328 46.1515V46.1524Z" fill="#E9C055"/>
<path fill-rule="evenodd" clip-rule="evenodd" d="M52.8608 49.6923C52.8608 50.0044 52.9071 49.8505 52.9966 50.237C53.5468 49.6031 53.3473 49.2962 54.8411 48.1354C55.6223 47.5286 56.2677 47.0027 57.0336 46.3823L59.082 44.485C60.3605 43.0606 60.7867 40.6172 59.7963 39.8901C59.7963 43.9494 52.8613 45.8293 52.8613 49.6923H52.8608Z" fill="#E9C055"/>
<path fill-rule="evenodd" clip-rule="evenodd" d="M23.2173 41.2515C23.2173 45.6155 28.2018 46.7216 30.0895 49.6192C30.379 50.0639 30.1659 49.9471 30.5602 50.237C30.5602 48.4463 30.3344 48.0843 29.5039 47.074C28.6271 46.0072 28.452 45.9583 27.3389 45.0214C25.8831 43.7964 23.7614 42.1534 23.7614 40.0261H23.4893C23.3758 40.5136 23.2173 40.6657 23.2173 41.2515Z" fill="#E9C055"/>
<path fill-rule="evenodd" clip-rule="evenodd" d="M52.0447 54.1848C52.5412 54.0523 52.5093 53.748 52.939 53.3104L53.7555 52.6301C54.1332 52.3674 54.3904 52.2205 54.7581 52.0001C55.1044 51.7925 55.3607 51.6049 55.7598 51.3693C59.1832 49.346 58.719 48.3326 58.5719 46.5611C57.7117 47.1924 59.0496 47.1867 56.1065 49.4024C55.7266 49.6883 55.4153 49.8474 55.0349 50.0993C53.6477 51.0187 52.0447 51.886 52.0447 54.1848Z" fill="#E9C055"/>
<path fill-rule="evenodd" clip-rule="evenodd" d="M31.3757 54.3212C31.3757 53.581 31.4591 53.2868 31.2041 52.7232C30.0452 50.1605 26.3393 49.6682 25.3153 47.1832L24.9848 46.5611C24.2149 49.8689 26.7615 50.668 29.5269 52.4963C30.9788 53.4564 30.5989 53.4258 31.3757 54.3212Z" fill="#E9C055"/>
<path fill-rule="evenodd" clip-rule="evenodd" d="M32.8718 58.2689C32.8718 57.1353 32.8356 56.9023 32.3155 56.2391C31.0798 54.6648 27.9908 54.3609 27.8406 52.551C27.1957 53.024 27.5018 54.0475 27.8402 54.5935C28.1856 55.1514 28.7812 55.5409 29.4248 55.8657C33.3478 57.8444 31.8199 57.4973 32.8718 58.2685V58.2689Z" fill="#E9C055"/>
<path fill-rule="evenodd" clip-rule="evenodd" d="M50.8213 58.2689C51.2008 56.845 53.7578 56.3191 55.1202 55.2213C55.3425 55.0421 55.5298 54.7946 55.6839 54.5607C56.1385 53.8713 56.0158 53.2536 55.8525 52.551C55.8311 52.5755 55.8014 52.5838 55.7935 52.6279L55.3342 53.3935C54.5879 54.4165 52.0361 55.081 51.1431 56.2767C50.837 56.6868 50.5008 57.5227 50.6776 58.0184C50.7506 58.223 50.7457 58.1596 50.8213 58.2689Z" fill="#E9C055"/>
<path fill-rule="evenodd" clip-rule="evenodd" d="M48.2375 61.8088C49.2772 61.0459 47.9275 61.5225 50.6405 60.2664C52.2387 59.5267 52.7806 59.1332 52.4531 57.7246C51.9129 58.1207 52.2954 58.2641 51.4492 58.7621C50.9924 59.0309 50.5855 59.2128 50.0833 59.4367C49.0039 59.9176 48.2375 60.3154 48.2375 61.8093V61.8088Z" fill="#E9C055"/>
<path fill-rule="evenodd" clip-rule="evenodd" d="M30.968 58.133C30.968 59.7825 32.5221 59.9945 34.1901 60.8973C34.6775 61.1609 35.084 61.8442 35.239 61.4914C35.7874 60.2424 32.7299 59.1507 32.1802 58.825C31.6348 58.502 31.4042 58.4316 31.2401 57.7246C31.0108 57.8838 30.968 57.7443 30.968 58.133Z" fill="#E9C055"/>
<path fill-rule="evenodd" clip-rule="evenodd" d="M46.3337 64.804C47.0131 64.0214 47.2053 64.1172 48.3698 63.8479C49.275 63.638 49.5969 63.0583 49.5969 61.9452C49.0978 62.3111 49.5038 62.3492 48.7746 62.6198C48.0851 62.8751 46.3333 62.5682 46.3333 64.8044L46.3337 64.804Z" fill="#E9C055"/>
<path fill-rule="evenodd" clip-rule="evenodd" d="M37.2231 64.804C37.1677 62.3033 35.1079 63.0841 34.3298 62.3912L33.96 61.9448C33.96 64.2934 35.1403 63.6577 36.3171 64.0778C37.0707 64.3467 36.7511 64.4573 37.2236 64.804H37.2231Z" fill="#E9C055"/>
<path fill-rule="evenodd" clip-rule="evenodd" d="M41.9823 15.6565C42.122 15.7964 42.4744 15.4607 42.1399 15.5831C42.1369 15.5844 41.7539 15.4279 41.9823 15.6565Z" fill="#E9C055"/>
<path fill-rule="evenodd" clip-rule="evenodd" d="M38.7188 69.9776L38.7594 69.937C38.7568 69.9396 38.7053 69.9641 38.7188 69.9776Z" fill="#E9C055"/>
</svg>
