<svg width="17" height="17" viewBox="0 0 17 17" fill="none" xmlns="http://www.w3.org/2000/svg">
<path fill-rule="evenodd" clip-rule="evenodd" d="M1.16866 7.31839C5.73205 4.9193 8.77503 3.33767 10.2976 2.5735C14.6448 0.391658 15.5481 0.0126486 16.1369 0.000133439C16.2664 -0.00261913 16.5559 0.0361057 16.7435 0.219742C16.9018 0.374801 16.9454 0.584264 16.9663 0.731277C16.9871 0.87829 17.0131 1.21319 16.9924 1.47487C16.7569 4.46165 15.7375 11.7098 15.2189 15.055C14.9995 16.4705 14.5674 16.9451 14.1492 16.9916C13.2401 17.0925 12.5498 16.2667 11.6694 15.5702C10.2916 14.4805 9.5133 13.8021 8.17597 12.7387C6.63045 11.5097 7.63235 10.8343 8.51313 9.73037C8.74364 9.44148 12.7489 5.04547 12.8264 4.64668C12.8361 4.59681 12.8451 4.41089 12.7536 4.31273C12.6621 4.21456 12.527 4.24813 12.4295 4.27483C12.2913 4.31267 10.0904 6.06807 5.82663 9.54101C5.2019 10.0587 4.63604 10.3109 4.12904 10.2977C3.57012 10.2831 2.49499 9.91632 1.69573 9.60282C0.715411 9.2183 -0.063727 9.01501 0.00411841 8.36197C0.0394565 8.02183 0.427637 7.67397 1.16866 7.31839Z" fill="#FF4D01"/>
</svg>
