<?xml version="1.0" encoding="UTF-8"?>
<!DOCTYPE svg PUBLIC "-//W3C//DTD SVG 1.1//EN" "http://www.w3.org/Graphics/SVG/1.1/DTD/svg11.dtd">
<!-- Creator: CorelDRAW (Evaluation Version) -->
<svg xmlns="http://www.w3.org/2000/svg" xml:space="preserve" width="52.3019mm" height="52.2394mm" version="1.1" style="shape-rendering:geometricPrecision; text-rendering:geometricPrecision; image-rendering:optimizeQuality; fill-rule:evenodd; clip-rule:evenodd"
viewBox="0 0 1734.81 1732.74"
 xmlns:xlink="http://www.w3.org/1999/xlink"
 xmlns:xodm="http://www.corel.com/coreldraw/odm/2003">
 <defs>
  <style type="text/css">
   <![CDATA[
    .fil0 {fill:#D7B56D}
   ]]>
  </style>
 </defs>
 <g id="Layer_x0020_1">
  <metadata id="CorelCorpID_0Corel-Layer"/>
  <g id="_2234769447600">
   <g id="_2449710535776">
    <path class="fil0" d="M139.69 890.23c0,-81.01 1.04,-122.46 20.76,-201.09 6.07,-24.18 11.72,-45.06 20.16,-66.9 18.14,-46.89 30.1,-77.86 55.73,-121.19 79.04,-133.62 163.8,-206.31 293.82,-281.88 36.37,-21.14 117.85,-49.95 161.06,-60.8 129.53,-32.53 293.47,-27.71 416.93,18.95 20.98,7.93 40.73,16.66 61.78,25.27 69.22,28.27 156.5,92.54 207.5,143.54 30.86,30.86 54.84,57.03 80.97,93.15 25.8,35.67 45.59,71.14 65.78,111.14 37.67,74.61 70.2,192.86 70.2,280.84l0 64.59c0,131.39 -60.74,294.26 -131.2,388.34 -39.68,52.96 -51.95,69.38 -101.22,115.02 -8.93,8.27 -11.62,12.12 -21.94,20.19 -66.05,51.6 -76.23,61.58 -158.46,102.71 -74.83,37.43 -189.45,70.21 -278.02,70.21l-67.4 0c-181.28,0 -360.84,-89.85 -485.13,-214.14 -43.27,-43.27 -83.79,-93.13 -113.9,-147.27 -10.99,-19.73 -20.21,-36.99 -30.07,-56.99 -32.79,-66.57 -67.36,-184.61 -67.36,-283.68l0.01 -0zm-56.17 -25.27c0,65.52 20.17,107.89 35.33,161.26 15.24,53.73 24.98,106.07 38.85,154.92 17.58,61.92 32.1,82.88 68.21,125.56 9.04,10.68 12.73,15.23 22.6,25.14l75.82 70.21c67,67.05 113.34,141.15 217.53,170.02 51.22,14.19 104,23.85 154.89,38.89 156.31,46.21 167.3,55.05 336.32,1.34 48.7,-15.48 105.9,-25.42 154.73,-39.04 57.22,-15.94 85.21,-35.59 124.94,-68.84l105.4 -110.84c6.06,-5.6 8.07,-5.94 14.05,-11.22l49.17 -46.32c112.93,-113.3 87.85,-163.36 133.03,-305.08 49.54,-155.38 47.89,-177.19 0.01,-332.05 -7.84,-25.37 -13.48,-48.71 -20.04,-75.45 -13.01,-53.12 -19.96,-98.66 -46.81,-146.97 -12.78,-22.99 -25.18,-37.46 -42.36,-55.93l-168.49 -171.32c-9.47,-10.82 -17.05,-14.45 -26.71,-23.84 -80.95,-78.62 -178.36,-74.67 -281.86,-108.5 -143.51,-46.89 -184.59,-46.61 -322.22,-0.04 -97.78,33.1 -205.62,31.29 -281.91,108.45 -16.94,17.13 -31.99,32.2 -49.13,49.16l-47.72 50.57c-74.98,74.97 -138,112.83 -168.41,221.94 -13.88,49.79 -23.45,107.04 -39.72,156.85 -15.03,45.99 -35.49,102.82 -35.49,161.1l0 -0z"/>
    <path class="fil0" d="M49.83 864.96c0,-80.82 65.37,-137.79 78.2,-227.91 14.49,-101.84 -6.97,-162.64 75.84,-230.26 40.15,-32.78 80.15,-49.83 117.67,-87.34 34.64,-34.64 55.42,-77.05 86.1,-116.09 84.01,-106.9 164.19,-41.5 306.57,-100.64 48.82,-20.27 91.54,-54.98 155.63,-54.98 75.4,0 136.66,65.62 225.1,78.2 29.91,4.26 63.35,5.02 92.75,8.35 73.47,8.32 92.75,17.1 136.38,65.82 50.29,56.17 46.85,98.54 143.39,162.72 82.95,55.15 116.43,72.12 130.61,175.5 3.76,27.41 4.53,63.94 7.76,93.34 3.06,27.85 12.27,56.26 23.19,77.91 27.53,54.54 55.25,105.63 55.25,163.8 0,47.93 -38.29,110.57 -55.25,146.95 -57.46,123.29 11.24,213.56 -99.85,304.54 -28.75,23.55 -61.58,41.14 -89.27,62.38 -5.7,4.37 -8.05,7.2 -13.6,11.68 -5.93,4.78 -7.96,5.55 -13.84,11.43 -44.84,44.84 -80.04,134.77 -139.09,164.21 -82.92,41.37 -157.01,8.57 -250.95,52.35 -59.91,27.93 -91,55.25 -163.8,55.25 -47.31,0 -110.85,-38.42 -146.95,-55.25 -23.17,-10.8 -49.79,-19.51 -78.2,-22.9 -30.05,-3.59 -65.28,-4.22 -93.05,-8.04 -36.73,-5.06 -52.06,-6.65 -79.68,-21.43 -23.53,-12.6 -37.21,-27.84 -53.39,-47.71 -31.28,-38.4 -51.82,-82.7 -87.18,-117.83 -46.4,-46.1 -130.42,-75.75 -163.69,-139.61 -14.38,-27.6 -15.5,-45.92 -20.44,-83.47 -3.69,-28.09 -4.45,-63 -8.04,-93.05 -9.53,-79.8 -78.18,-147.28 -78.18,-227.92l-0.01 -0.01zm806.05 -864.96l25.02 0c38.97,4.18 71.97,27.49 117.24,54.25 10.91,6.46 16.47,11.12 28,16.94 10.05,5.07 18.04,9.59 28.2,13.92 87.04,37.11 201.11,-22.81 272.65,50.31 35.89,36.7 60.62,105.07 86.82,140.66 39.9,54.2 80.05,61.72 135.15,95.13 165.06,100.07 32.34,200.36 114.02,338.13 21.66,36.54 71.84,104.01 71.84,155.63 0,52.31 -45.86,113.98 -72.5,157.77 -38.71,63.61 -25.78,108.88 -25.78,198.89 0,138.73 -133.23,140.21 -202.93,209.9 -69.97,69.97 -71.12,202.93 -209.9,202.93 -40.87,0 -80.41,-4.47 -115.65,-0.5 -109.69,12.33 -153.61,98.79 -241.01,98.79 -51.97,0 -113.77,-45.78 -156.04,-71.43 -64.88,-39.38 -101.59,-26.86 -192.2,-26.86 -100.86,0 -130.47,-52.49 -169.43,-131.06 -66.69,-134.5 -146.52,-107.69 -217.45,-184.13 -44.07,-47.49 -31.55,-111.1 -31.55,-193.11 0,-66.2 -23.19,-94.13 -47.61,-134.93 -61.6,-102.87 -78.75,-134.8 0.43,-252.05 72.52,-107.39 37.18,-143.67 47.37,-255.93 9.78,-107.87 134.64,-121.79 198.56,-180.57 63.58,-58.47 67.84,-180.43 176.33,-202.79 35.33,-7.28 94.1,-1.58 138.83,-1.58 76.46,0 120.99,-49.11 177.82,-77.74 24.26,-12.22 44.97,-18.6 63.76,-20.55l0.01 -0.01z"/>
    <path class="fil0" d="M1543.84 864.96c0,468.44 -469.38,811.38 -938.41,623.88 -9.01,-3.6 -12.53,-5.92 -21.23,-9.67l-62.76 -32.73c-69.64,-41.73 -117.51,-84.8 -171.8,-145.54 -9.71,-10.88 -18.24,-23.11 -27.04,-34.75 -29,-38.42 -50.22,-77.73 -71.58,-122.2 -71.36,-148.62 -81.82,-353.3 -13.08,-526.13 11.92,-29.96 24.81,-58.25 40.93,-85.44 32.73,-55.2 64.24,-99.76 110.01,-145.54 5.49,-5.49 9.69,-10.39 15.57,-15.32 96.02,-80.27 173.19,-133.57 309.77,-164.83 196.76,-45.04 387.99,-2.28 548.76,110.63 24.39,17.13 34.12,27.42 52.93,42.56 82.34,66.28 159.41,190.96 191.02,286.39 21.03,63.5 36.87,134.93 36.87,218.69l0.01 0.01zm-676.8 716.12c109.08,0 199.32,-24.26 293.27,-63.38 23.51,-9.79 38.48,-18.74 59.62,-30.26 52.36,-28.53 86.47,-57.2 129.47,-95.2 33.37,-29.48 12.01,-9.63 43.47,-43.58l41.45 -48.41c6.44,-8.61 12.78,-16.43 19.13,-25.8 194.89,-287.43 167.07,-665.59 -73.19,-905.85 -14.97,-14.97 -27.91,-30.27 -44.22,-42.83 -63.65,-49.02 -67.9,-59.08 -157.27,-103.91 -66.55,-33.38 -181.41,-70.21 -280.83,-70.21 -87.78,0 -127.82,-1 -215.67,23.04 -44.35,12.14 -89.71,28.38 -128.83,48.1 -39.61,19.97 -76.45,41.49 -110.06,66.87l-48.14 38.92c-66.25,50.72 -152.62,173.27 -186.15,257.56 -34.3,86.2 -41.34,119.14 -53.38,210.6 -9.42,71.55 0.49,171.77 17.06,240.16 20.09,82.9 61.86,174.14 111.33,242.53l127.37 136.61c15.28,13.36 34.5,27.67 51.16,38.7 65.8,43.57 53.08,33.28 113.27,63.66 75.46,38.09 199.65,62.7 291.14,62.7l0 -0.02z"/>
    <path class="fil0" d="M875.46 665.58l5.62 -30.89c14.78,3.95 27.18,25.1 34.64,38.37 13.79,24.53 14.55,38.15 1.87,57.1 -13.09,-3.05 -9.29,-5.22 -16.62,-8.65l-11.3 -2.74c-8.9,-2.61 -8.64,3.47 -8.42,-30.9 0.1,-15.9 0.47,-12.97 -5.78,-22.3zm-11.22 0c-6.94,14.47 1.32,36.09 -5.62,50.55 -8.74,4.19 -10.1,1.05 -18.04,4.42 -10.22,4.32 -2.77,6.19 -15.66,9.62 -33.66,-22.55 19.52,-87.87 26.55,-92.11 16.37,-9.88 5.45,15.99 12.77,27.52zm11.22 0l-2.81 -2.81 2.81 2.81zm-8.42 -2.81l-2.81 2.81 2.81 -2.81zm5.62 0l-5.62 0 0 -5.62 5.62 0 0 5.62zm-5.62 -14.04c2.98,-2.99 10.65,4.45 3.12,1.46 -0.06,-0.03 -7.83,3.25 -3.12,-1.46zm0 -8.42c2.98,-2.99 10.65,4.45 3.12,1.46 -0.06,-0.03 -7.83,3.25 -3.12,-1.46zm-42.12 -89.87c0.25,11.12 2.31,11.33 6.28,19 10.81,20.94 7.77,5.76 7.77,34.35 0,26.6 -50.97,6.89 -67.5,44.83 -11.23,25.76 -1.32,74.05 -8.97,106.17 -5.04,21.17 -12.48,29.42 -15.05,41.11 -3.8,17.32 -2.73,37.64 -6.33,52.65 -4.58,19.11 -30.36,39.14 -30.55,53.72 -0.14,10.69 -2.01,5.87 8.9,5.04 0.33,-0.03 1.23,-0.15 1.52,-0.17l2.83 -0.06c-3.64,7.59 -5.62,13.55 -5.62,25.28 8.31,-2.22 4.55,-1.14 11.24,-5.62 0,11.41 -0.94,9.05 2.81,16.85 7.43,-5.44 8.14,-7.03 8.42,-19.66 2.12,3.35 1.26,-0.05 2.33,6.1 0.69,3.95 0.49,6.77 0.49,10.75 11.53,-3.07 8.42,-2.09 8.42,-16.85 0.43,0.63 0.94,0.98 1.14,1.97 1.08,5.23 0.74,4.54 5.04,4.92 16.02,1.43 -8.93,-46.24 16.81,-87.81 29.02,-46.86 17.66,-67.04 25.12,-90.03 0.21,-0.65 0.55,-1.49 0.75,-2.06l4.49 69.09c0,23.91 -24.02,29.81 -12.45,113.54 5.29,38.26 15.26,91.64 15.26,125.16 0,27.58 -15.71,17.45 4.4,88.28 9.58,33.75 12.45,26.74 12.45,60.57 0,13.13 -8.42,15.62 -8.42,36.51 66.05,15.38 47.04,-1.31 40.54,-29.31 -14.8,-63.72 -6.84,-52.13 -6.84,-102.68 0,-18.15 -4.32,-32.05 -2.2,-47.01 6.49,-45.96 14.19,-74.35 19.06,-132.73 8.79,6.44 5.24,11.93 8.17,42.39 1.65,17.14 3.64,29.46 5.71,44.85 2.1,15.59 6.1,29.62 7.94,42.64 2.72,19.15 -2.16,28.3 -2.16,47.05 0,70.19 8.92,22.83 -5.92,103.61 -4.81,26.17 -19.31,36.81 5.92,36.81 16.1,0 20.08,-4.48 33.7,-5.62 0,-25.18 -8.42,-15.15 -8.42,-44.93 0,-40.26 22.47,-45 22.47,-112.33 0,-19.11 -8.7,-19.14 -4.45,-46.54 3.46,-22.29 -0.9,-13.87 6.06,-47.34 8.47,-40.74 17.15,-98.87 6.31,-138.7 -13.14,-48.31 -10.72,-16.88 -10.72,-76.33 0,-6.71 -0.09,-9.4 0.98,-15.87 0.04,-0.24 1.23,-5.83 1.53,-6.89 0.2,-0.7 0.45,-1.48 0.67,-2.14l2.43 -5.99c1.99,89.69 36.92,89.77 36.56,134.75l2.76 50.59c9.28,-3.46 1.33,1.88 8.42,-5.62 0.24,11.04 -0.77,6.58 2.81,14.04 0.88,-0.32 3.22,-1.95 3.7,-2.09 13.88,-4.39 15.96,21.17 15.96,-14.75 21.78,25.05 8.32,-10.83 5.62,-22.47 7.22,4.83 11.25,14.06 13.13,2.79 0.9,-5.44 -4.93,-15.13 -7.57,-19.57 -7.39,-12.46 -18.66,-21.74 -22.37,-36.63 -3.9,-15.67 -2.3,-33 -6.32,-49.85 -3.94,-16.54 -11.67,-26.64 -15.07,-43.91 -6.1,-30.95 0.26,-84.37 -9.08,-106.06 -16.88,-39.26 -86.71,-12.37 -64.42,-69.08 8.12,-20.65 12.96,-10.19 7.09,-42.06 -10.11,-54.98 -73.13,-43.55 -77.5,-5.89 -2.19,18.87 2.18,15.88 -6.07,19.21l-0.01 0.02z"/>
    <path class="fil0" d="M1161.91 452.14c0,130.21 -95.48,225.59 -95.48,311.72 0,12.26 4.63,21.95 5.62,33.7 9.87,-7.23 2.61,-8.42 15.89,-34.66 44.93,-88.71 107.68,-165.74 107.68,-263.02 0,-43.06 -19.56,-84.11 -44.93,-101.1 3.82,16.41 11.23,26.28 11.23,53.36l-0 0z"/>
    <path class="fil0" d="M647.99 797.57l8.42 -44.93c0,-34.4 -36.03,-108.79 -49.62,-135.73 -24.6,-48.76 -64.26,-156.83 -31.83,-218.11 -13.03,3.48 -25.95,26.1 -31.92,38.29 -64.21,131.08 99.15,290.88 104.93,360.49l0 -0.01z"/>
    <path class="fil0" d="M487.92 609.41c0,96.65 105.23,179.89 135.74,246.19 3.99,8.66 3.55,12.85 10.29,17.79 0.95,-11.39 2.81,-6.99 2.81,-25.27 0,-45.59 -44.78,-105.07 -64.6,-134.8 -31.1,-46.64 -58.98,-91.43 -58.98,-157.27 0,-9.69 2.08,-10.88 2.81,-19.66 -15.96,10.69 -28.08,45.78 -28.08,73.02l0 0.01z"/>
    <path class="fil0" d="M1212.98 564.4c4.84,39 -36.02,112.39 -56.68,143.3 -35.29,52.79 -78.67,105.24 -64.59,165.69 0.44,-0.5 1.04,-2.02 1.2,-1.61l9.02 -19.06c3.93,-8.22 6.97,-12.22 11.67,-19.22 26.51,-39.5 54.97,-71.3 82.01,-111.76 28.29,-42.33 49.97,-91.03 36.66,-143.37 -3.64,-14.32 -12.7,-34.72 -22.61,-41.98l3.33 28.01 -0.01 0z"/>
    <path class="fil0" d="M471.07 727.36c0,69.02 66.13,123.97 113.04,170.6 9.82,9.77 13.96,14.38 22.21,25.53 6.52,8.82 12.36,23.52 19.21,28.53 20.16,-35.88 -44.9,-111.51 -70.9,-136.92 -34.61,-33.83 -66.71,-79.54 -66.71,-132.68 -7.56,2.73 -8.93,7.17 -12.36,18.53 -2.88,9.53 -4.49,15.31 -4.49,26.41l-0.01 0z"/>
    <path class="fil0" d="M1097.32 952.02c6.75,-2.44 2.21,0.24 6.39,-4.85 11.21,-13.65 -2.17,-9.2 43.46,-54.83 32.07,-32.05 84.1,-83.36 98.67,-123.18 9.32,-25.5 13.01,-71.26 -8.1,-86.74 0,78.58 -72.11,130.85 -115.99,190.11 -6.33,8.55 -15.06,22.61 -18.51,32.04 -5.86,16.07 -5.92,25.88 -5.92,47.44l0 0.02z"/>
    <path class="fil0" d="M1091.71 1025.04c0,6.44 0.96,3.26 2.81,11.24 11.36,-13.08 7.24,-19.41 38.09,-43.35 16.13,-12.52 29.46,-23.37 45.28,-36.16l42.3 -39.14c26.41,-29.38 35.21,-79.78 14.75,-94.78 0,83.73 -143.23,122.51 -143.23,202.19l-0.01 0z"/>
    <path class="fil0" d="M479.5 850.92c0,90.01 102.94,112.83 141.93,172.61 5.98,9.17 1.58,6.76 9.72,12.74 0,-36.94 -4.66,-44.41 -21.82,-65.25 -18.11,-22 -21.73,-23.01 -44.71,-42.34 -30.07,-25.27 -73.88,-59.16 -73.88,-103.04l-5.62 0c-2.35,10.06 -5.62,13.19 -5.62,25.28l0 -0z"/>
    <path class="fil0" d="M1074.85 1117.71c10.25,-2.73 9.6,-9.01 18.47,-18.04l16.86 -14.03c7.8,-5.42 13.11,-8.45 20.7,-13 7.15,-4.28 12.45,-8.15 20.69,-13.01 70.7,-41.74 61.12,-62.64 58.08,-99.18 -17.77,13.02 9.86,12.91 -50.92,58.61 -7.84,5.9 -14.28,9.18 -22.13,14.38 -28.65,18.97 -61.76,36.86 -61.76,84.28l0.01 0z"/>
    <path class="fil0" d="M647.99 1120.52c0,-15.27 1.72,-21.34 -3.55,-32.96 -23.93,-52.86 -100.47,-63.02 -121.62,-114.28l-6.83 -12.83c-15.9,68.23 36.7,84.72 93.81,122.43 29.98,19.81 22.14,19.17 38.18,37.64z"/>
    <path class="fil0" d="M678.89 1201.95c0,-23.38 -0.75,-28.19 -11.49,-41.87 -25.52,-32.48 -89.31,-38.74 -92.42,-76.08 -13.32,9.76 -7,30.87 -0.01,42.13 7.13,11.51 19.43,19.54 32.73,26.24 81.02,40.81 49.47,33.66 71.19,49.56l0 0.01z"/>
    <path class="fil0" d="M1049.58 1201.95c7.84,-29.37 60.65,-40.22 88.78,-62.87 4.59,-3.7 8.46,-8.8 11.64,-13.63 9.39,-14.22 6.85,-26.96 3.48,-41.45 -0.44,0.5 -1.05,0.68 -1.22,1.59l-9.49 15.79c-15.41,21.1 -68.11,34.81 -86.55,59.48 -6.32,8.46 -13.26,25.7 -9.61,35.93 1.51,4.22 1.41,2.91 2.97,5.17l0 -0.01z"/>
    <path class="fil0" d="M996.22 1274.98c21.47,-15.74 -6.4,-5.91 49.63,-31.82 33.01,-15.26 44.2,-23.37 37.43,-52.43 -11.15,8.17 -3.26,11.13 -20.73,21.4 -9.43,5.55 -17.84,9.3 -28.21,13.91 -22.29,9.92 -38.12,18.13 -38.12,48.94l0 -0.01z"/>
    <path class="fil0" d="M639.57 1199.15c0,34.02 32.09,38.4 66.54,57.02 10.06,5.44 18.46,19.53 21.66,12.26 11.33,-25.77 -51.82,-48.28 -63.17,-55 -11.26,-6.66 -16.02,-8.12 -19.42,-22.7 -4.73,3.28 -5.62,0.4 -5.62,8.42z"/>
    <path class="fil0" d="M956.9 1336.76c14.03,-16.14 18,-14.17 42.05,-19.72 18.69,-4.33 25.34,-16.29 25.34,-39.25 -10.31,7.55 -1.92,8.33 -16.98,13.91 -14.24,5.27 -50.42,-1.06 -50.42,45.06l0.01 -0.01z"/>
    <path class="fil0" d="M768.75 1336.76c-1.14,-51.58 -43.68,-35.48 -59.75,-49.77l-7.64 -9.21c0,48.45 24.38,35.33 48.68,44 15.57,5.55 8.97,7.83 18.72,14.98l-0.01 0z"/>
    <path class="fil0" d="M867.04 322.96c2.88,2.89 10.16,-4.04 3.25,-1.52 -0.06,0.03 -7.97,-3.2 -3.25,1.52z"/>
    <path class="fil0" d="M799.64 1443.48l0.84 -0.84c-0.05,0.05 -1.12,0.56 -0.84,0.84z"/>
   </g>
  </g>
 </g>
</svg>
